<?xml version="1.0" encoding="UTF-8" standalone="no"?>
<!-- Created with Inkscape (http://www.inkscape.org/) -->
<svg
   xmlns:svg="http://www.w3.org/2000/svg"
   xmlns="http://www.w3.org/2000/svg"
   xmlns:xlink="http://www.w3.org/1999/xlink"
   xmlns:inkscape="http://www.inkscape.org/namespaces/inkscape"
   version="1.0"
   width="1000"
   height="400"
   id="svg2">
  <defs
     id="defs4">
    <linearGradient
       id="linearGradient4476">
      <stop
         style="stop-color:#ffffff;stop-opacity:1"
         offset="0"
         id="stop4478" />
      <stop
         style="stop-color:#ffffff;stop-opacity:0"
         offset="1"
         id="stop4480" />
    </linearGradient>
    <linearGradient
       id="linearGradient3273">
      <stop
         style="stop-color:#ffffff;stop-opacity:1"
         offset="0"
         id="stop3275" />
      <stop
         style="stop-color:#ffffff;stop-opacity:0"
         offset="1"
         id="stop3277" />
    </linearGradient>
    <linearGradient
       x1="164.71666"
       y1="-232.2366"
       x2="163.62622"
       y2="211.23331"
       id="linearGradient3279"
       xlink:href="#linearGradient3273"
       gradientUnits="userSpaceOnUse" />
    <filter
       id="filter3321"
       height="1.3123596"
       y="-0.1561798"
       width="1.0847561"
       x="-0.042378046">
      <feGaussianBlur
         id="feGaussianBlur3323"
         stdDeviation="27.018125"
         inkscape:collect="always" />
    </filter>
    <filter
       id="filter3430"
       height="1.4640099"
       y="-0.23200494"
       width="1.1099521"
       x="-0.054976027">
      <feGaussianBlur
         id="feGaussianBlur3432"
         stdDeviation="22.582184"
         inkscape:collect="always" />
    </filter>
    <filter
       id="filter3506"
       height="1.4350092"
       y="-0.21750464"
       width="1.10308"
       x="-0.051540025">
      <feGaussianBlur
         id="feGaussianBlur3508"
         stdDeviation="21.170797"
         inkscape:collect="always" />
    </filter>
    <filter
       id="filter3726"
       height="1.6454418"
       y="-0.32272092"
       width="1.1183338"
       x="-0.059166878">
      <feGaussianBlur
         id="feGaussianBlur3728"
         stdDeviation="15.099668"
         inkscape:collect="always" />
    </filter>
    <filter
       id="filter3774"
       height="1.3540555"
       y="-0.17702773"
       width="1.0658953"
       x="-0.032947663">
      <feGaussianBlur
         id="feGaussianBlur3776"
         stdDeviation="8.2828844"
         inkscape:collect="always" />
    </filter>
    <filter
       id="filter3822"
       height="1.4610522"
       y="-0.23052612"
       width="1.0935612"
       x="-0.046780601">
      <feGaussianBlur
         id="feGaussianBlur3824"
         stdDeviation="11.938631"
         inkscape:collect="always" />
    </filter>
    <linearGradient
       x1="131.98676"
       y1="-299.76053"
       x2="128.68327"
       y2="296.30493"
       id="linearGradient4482"
       xlink:href="#linearGradient4476"
       gradientUnits="userSpaceOnUse" />
    <filter
       id="filter4600">
      <feGaussianBlur
         id="feGaussianBlur4602"
         stdDeviation="15.760573"
         inkscape:collect="always" />
    </filter>
  </defs>
  <g
     transform="translate(305.75953,-19.19196)"
     style="opacity:1;display:inline"
     id="layer1">
    <path
       d="M 125.86458,-192.23661 C 89.104893,-180.72727 69.217213,-122.49647 24.694623,-148.20338 C -31.210137,-144.13348 -95.699327,-149.45279 -144.10452,-118.66969 C -179.93491,-102.83777 -96.282807,-117.19449 -142.20323,-102.53301 C -178.38198,-90.871016 -228.63284,-75.218016 -251.65108,-112.03544 C -285.0824,-121.05429 -363.91135,-96.284298 -328.28908,-60.898051 C -310.38356,-48.789689 -363.67734,-52.742988 -373.09087,-48.598646 C -395.80649,-49.366512 -435.69747,-17.626856 -423.60438,-18.149102 C -391.06924,-8.3011358 -355.12725,2.4609253 -327.49563,25.983636 C -284.60308,62.299554 -231.04431,41.285524 -179.1902,52.672874 C -141.59345,54.348794 -109.31681,79.295514 -72.814057,80.605394 C -34.778097,85.512774 35.122383,116.96432 53.953003,114.05108 C -4.6563967,126.40171 88.159703,136.85826 106.54904,136.84189 C 127.75876,137.64521 130.92136,134.72959 116.1782,148.4905 C 155.11496,157.07529 196.931,152.92649 236.86852,151.40034 C 288.65586,141.11425 344.28765,141.0139 392.96802,120.32394 C 411.31524,74.484134 493.03673,75.918784 540.87027,57.570384 C 596.83467,46.439344 636.76243,4.0135385 675.61741,14.567434 C 682.38222,2.0942296 731.9356,11.878345 763.96357,-7.4101459 C 723.07552,-20.828761 684.73636,-13.381783 662.67633,-37.78856 C 626.05044,-23.111528 622.64771,-73.040133 579.28052,-67.246976 C 538.29253,-91.097046 494.48343,-57.843916 457.16379,-69.873696 C 465.05188,-89.617656 516.1216,-79.122206 504.77126,-78.928166 C 530.44491,-73.490106 588.31987,-85.623986 529.93269,-90.397396 C 503.02461,-93.611426 428.08237,-81.175376 475.71118,-103.79031 C 423.28854,-103.25341 378.09297,-141.32525 325.31383,-142.67607 C 348.38502,-205.10713 243.43702,-176.64147 208.76135,-173.13571 C 146.02894,-172.76664 257.44085,-150.92109 208.64233,-142.12204 C 161.31812,-129.80961 157.46982,-176.34552 125.86458,-192.23661 z M 500.83333,-79.330356 L 499.59224,-79.264586 L 500.83333,-79.330356 z M 499.58333,-79.267856 C 491.85589,-83.727766 488.05593,-74.000656 499.58333,-79.267856 z M 494.20833,-80.080356 C 489.47148,-80.922616 491.22892,-80.610126 494.20833,-80.080356 z M 59.927083,113.91964 C 66.810473,111.77413 49.754323,113.68636 59.927083,113.91964 z M 218.89583,-164.54911 C 201.68665,-163.21703 189.92461,-164.61282 218.89583,-164.54911 z M 284.27083,-158.33036 C 267.28235,-148.32354 260.74228,-163.72818 284.27083,-158.33036 z M 120.39583,-147.61161 C 122.22277,-145.99437 117.56732,-147.3246 120.39583,-147.61161 z M 157.02083,-140.64286 C 153.31813,-136.36904 138.25011,-142.00885 157.02083,-140.64286 z M 12.864583,-136.83036 C -6.1134867,-131.66846 -4.2156767,-138.09493 12.864583,-136.83036 z M 273.30208,-136.01786 C 295.37076,-138.67358 355.0349,-114.3261 330.94209,-113.56519 C 339.99168,-143.12113 231.03454,-125.70608 273.30208,-136.01786 z M 136.42708,-135.70536 C 132.59138,-129.08999 119.94366,-142.50145 136.42708,-135.70536 z M 251.02083,-122.73661 C 280.45386,-124.47705 283.75232,-112.30105 253.2418,-115.87249 C 247.3575,-112.21366 233.87698,-118.46946 251.02083,-122.73661 z M 215.27083,-116.54911 C 245.71384,-114.32743 194.08329,-111.13518 215.27083,-116.54911 z M 242.05208,-111.89286 C 290.05907,-119.63091 279.88832,-76.061536 240.68458,-93.816236 C 234.66777,-98.484746 237.24567,-107.4484 242.05208,-111.89286 z M 209.98958,-97.174106 C 283.36924,-87.661556 170.25248,-91.538296 209.98958,-97.174106 z M 465.52083,-89.830356 C 487.32049,-89.893246 505.32902,-88.484956 472.2326,-89.577856 L 465.52083,-89.830356 z M 201.23958,-87.986606 C 215.0487,-87.851296 204.26185,-87.956996 201.23958,-87.986606 z M 409.11458,-82.642856 C 428.35759,-77.867656 375.04166,-80.355466 409.11458,-82.642856 z M 515.67708,-63.799106 C 533.65226,-65.680456 606.83545,-40.474456 553.6006,-48.581676 C 540.19244,-50.315236 524.42952,-51.841146 515.67708,-63.799106 z M -350.6153,-18.019539 C -350.87996,-14.224474 -357.37172,-23.411069 -350.6153,-18.019539 z M -353.41906,-16.783752 C -348.90186,-17.705163 -341.53661,-8.5939441 -353.41906,-16.783752 z M 665.41895,-2.7107769 C 675.35931,0.29231958 723.23618,-11.335457 688.36609,-3.8565669 C 702.7915,-10.315701 725.21731,-3.0985517 696.84479,-0.86400763 C 686.58221,-2.7711248 670.91918,12.050474 665.41895,-2.7107769 z M -235.95322,26.799729 C -235.97921,28.979996 -239.84232,23.834437 -235.95322,26.799729 z M -230.29167,37.143103 C -234.87372,37.868513 -232.64636,37.527981 -230.29167,37.143103 z M -285.62255,30.347799 C -266.44251,37.244171 -186.90461,37.366294 -246.86091,42.761962 C -260.02821,42.438627 -274.20626,40.043093 -285.62255,30.347799 z M -183.51042,39.857144 C -176.6253,37.218684 -179.75099,50.482914 -183.51042,39.857144 z M 581.30818,43.944542 L 580.53627,44.336186 L 581.30818,43.944542 z M 51.145833,84.982144 C 71.252383,82.050784 133.89498,101.80978 78.351553,99.485504 C 63.710663,107.91201 14.444403,108.15349 51.145833,84.982144 z "
       transform="matrix(0.7285873,0,0,0.7285873,62.137168,247.78383)"
       style="fill:#000000;fill-opacity:1;fill-rule:nonzero;stroke:none;stroke-width:5;stroke-linejoin:miter;stroke-miterlimit:4;stroke-dasharray:none;stroke-dashoffset:0;stroke-opacity:1;filter:url(#filter3321)"
       id="path2275" />
    <path
       d="M 125.86458,-232.23661 C 89.104893,-220.72727 69.217213,-162.49647 24.694623,-188.20338 C -31.210137,-184.13348 -95.69933,-189.45279 -144.10452,-158.66969 C -179.93491,-142.83777 -96.28281,-157.19449 -142.20323,-142.53301 C -178.38198,-130.87102 -228.63284,-115.21802 -251.65108,-152.03544 C -285.0824,-161.05429 -371.95471,-129.32853 -334.55816,-94.647066 C -314.18401,-83.447806 -381.39956,-79.353286 -394.42091,-73.123466 C -422.23599,-71.373956 -464.03112,-58.029446 -454.97625,-50.306136 C -419.29492,-40.073986 -372.71561,-17.123356 -334.70169,2.672804 C -285.35241,28.840304 -231.04431,1.285524 -179.1902,12.672874 C -141.59345,14.348794 -109.31681,39.295514 -72.814057,40.605394 C -34.778097,45.512774 35.122383,76.96432 53.953003,74.05108 C -4.656397,86.40171 88.159703,96.85826 106.54904,96.84189 C 127.75876,97.64521 130.92136,94.72959 116.1782,108.4905 C 155.11496,117.07529 196.931,112.92649 236.86852,111.40034 C 288.65586,101.11425 344.28765,101.0139 392.96802,80.32394 C 411.31524,34.484134 493.03673,35.918784 540.87027,17.570384 C 596.83467,6.439344 651.78087,-25.974166 709.5161,-2.833436 C 719.57032,-13.113706 783.79123,6.448764 818.86433,-10.809636 C 773.35263,-27.310686 722.28673,-28.348206 685.49849,-62.573786 C 635.10933,-57.072266 625.99314,-110.80985 579.28052,-107.24698 C 538.29253,-131.09705 494.48343,-97.843916 457.16379,-109.8737 C 465.05188,-129.61766 516.1216,-119.12221 504.77126,-118.92817 C 530.44491,-113.49011 588.31987,-125.62399 529.93269,-130.3974 C 503.02461,-133.61143 428.08237,-121.17538 475.71118,-143.79031 C 423.28854,-143.25341 378.09297,-181.32525 325.31383,-182.67607 C 348.38502,-245.10713 243.43702,-216.64147 208.76135,-213.13571 C 146.02894,-212.76664 257.44085,-190.92109 208.64233,-182.12204 C 161.31812,-169.80961 157.46982,-216.34552 125.86458,-232.23661 z M 500.83333,-119.33036 L 499.59224,-119.26459 L 500.83333,-119.33036 z M 499.58333,-119.26786 C 491.85589,-123.72777 488.05593,-114.00066 499.58333,-119.26786 z M 494.20833,-120.08036 C 489.47148,-120.92262 491.22892,-120.61013 494.20833,-120.08036 z M 59.927083,73.91964 C 66.810473,71.77413 49.754323,73.68636 59.927083,73.91964 z M 218.89583,-204.54911 C 201.68665,-203.21703 189.92461,-204.61282 218.89583,-204.54911 z M 284.27083,-198.33036 C 267.28235,-188.32354 260.74228,-203.72818 284.27083,-198.33036 z M 120.39583,-187.61161 C 122.22277,-185.99437 117.56732,-187.3246 120.39583,-187.61161 z M 157.02083,-180.64286 C 153.31813,-176.36904 138.25011,-182.00885 157.02083,-180.64286 z M 12.864583,-176.83036 C -6.113487,-171.66846 -4.215677,-178.09493 12.864583,-176.83036 z M 273.30208,-176.01786 C 295.37076,-178.67358 355.0349,-154.3261 330.94209,-153.56519 C 339.99168,-183.12113 231.03454,-165.70608 273.30208,-176.01786 z M 136.42708,-175.70536 C 132.59138,-169.08999 119.94366,-182.50145 136.42708,-175.70536 z M 215.27083,-156.54911 C 245.71384,-154.32743 194.08329,-151.13518 215.27083,-156.54911 z M 209.98958,-137.17411 C 283.36924,-127.66156 170.25248,-131.5383 209.98958,-137.17411 z M 465.52083,-129.83036 C 487.32049,-129.89325 505.32902,-128.48496 472.2326,-129.57786 L 465.52083,-129.83036 z M 201.23958,-127.98661 C 215.0487,-127.8513 204.26185,-127.957 201.23958,-127.98661 z M 409.11458,-122.64286 C 428.35759,-117.86766 375.04166,-120.35547 409.11458,-122.64286 z M 515.67708,-103.79911 C 533.65226,-105.68046 606.83545,-80.474456 553.6006,-88.581676 C 540.19244,-90.315236 524.42952,-91.841146 515.67708,-103.79911 z M -367.60417,-40.174106 C -367.95131,-35.782366 -376.57397,-45.582766 -367.60417,-40.174106 z M -371.38542,-38.392856 C -365.29662,-40.041626 -355.27445,-30.699556 -371.38542,-38.392856 z M 694.11458,-23.580356 C 709.18537,-17.156976 774.07823,-17.440756 728.09616,-17.369856 C 747.93503,-20.220016 776.55483,-8.873536 740.07023,-12.047046 C 725.56433,-16.783046 702.63886,-6.803076 694.11458,-23.580356 z M -235.97917,-12.455356 C -236.00263,-10.262436 -239.90635,-15.081106 -235.97917,-12.455356 z M -230.29167,-2.486606 C -234.88191,-1.459416 -232.64853,-1.959196 -230.29167,-2.486606 z M -286.88542,-0.799106 C -266.96503,2.281524 -186.90461,-2.633706 -246.95503,4.619634 C -260.3502,6.229324 -274.93191,6.420424 -286.88542,-0.799106 z M -183.51042,-0.142856 C -176.6253,-2.781316 -179.75099,10.482914 -183.51042,-0.142856 z M 582.20833,4.544644 L 581.36458,4.888394 L 582.20833,4.544644 z M 51.145833,44.982144 C 71.252383,42.050784 133.89498,61.80978 78.351553,59.485504 C 63.710663,67.91201 14.444403,68.15349 51.145833,44.982144 z "
       transform="matrix(0.7285873,0,0,0.7506085,62.137168,252.89795)"
       style="fill:url(#linearGradient4482);fill-opacity:1;fill-rule:nonzero;stroke:none;stroke-width:5;stroke-linejoin:miter;stroke-miterlimit:4;stroke-dasharray:none;stroke-dashoffset:0;stroke-opacity:1;filter:url(#filter4600)"
       id="path2289" />
    <path
       d="M -239.37116,291.26643 C -260.77585,297.35648 -282.23541,302.33513 -303.75595,306.07823 C -269.33312,315.4472 -238.71999,332.09714 -202.08041,328.48598 C -174.31213,328.85856 -149.39858,315.12736 -133.8352,334.2358 C -109.52131,343.95841 -84.512518,363.96658 -53.504464,353.49107 C -25.2469,342.64849 -1.7157716,347.32982 26.976061,353.32343 C 49.169535,362.46108 73.80866,375.15679 100.35212,368.2387 C 132.91572,363.75497 152.05986,388.65203 179.24554,402.39732 C 200.27229,411.68365 235.92724,412.64856 248.96971,423.36286 C 248.23132,458.89563 296.1054,455.17922 319.99302,448.42013 C 337.20931,443.56049 362.83272,432.59057 356.90179,410.24107 C 388.99185,417.7415 406.53808,383.00098 436.39686,380.21956 C 456.67216,360.62256 483.76664,359.05442 508.93165,348.69723 C 535.71699,327.72037 477.27222,327.09558 463.09883,327.64656 C 436.91744,332.59752 412.03795,323.73501 385.76703,325.96436 C 371.81628,326.59713 355.57412,331.64883 376.43926,320.62067 C 371.94026,294.17318 320.40206,304.68357 297.12487,303.94104 C 266.419,300.87119 235.12724,329.25978 207.51977,313.07921 C 169.53086,295.20741 122.00405,273.26936 82.433036,299.74107 C 73.429366,289.09526 38.383069,276.63762 41.480061,268.92016 C 18.569122,265.60319 -28.821279,248.96444 -49.536645,280.60182 C -74.292534,297.52371 -20.096928,326.245 -51.127595,322.3903 C -72.249837,312.85103 -96.668534,306.57255 -120.8489,310.074 C -144.02284,308.9727 -117.53629,314.14832 -117.33633,299.78924 C -150.56512,303.03143 -183.12387,300.95946 -214.14872,292.37746 C -222.3272,291.21448 -230.7707,290.68645 -239.37116,291.26643 z M -121.1561,308.43141 C -111.32649,311.20509 -103.13425,303.93562 -121.1561,308.43141 z M 279.99554,321.70982 C 273.33987,325.41769 256.35014,323.85449 279.99554,321.70982 z M 149.62054,334.20982 C 181.13228,338.14055 142.60856,337.89095 149.62054,334.20982 z M 378.87054,335.61607 C 369.8106,339.95194 351.81963,347.10417 371.38404,338.06084 L 374.85204,336.87711 L 378.87054,335.61607 z M 159.37054,341.99107 C 169.29179,340.50776 191.03815,344.66349 167.64568,344.75461 L 162.15179,344.58482 L 159.37054,341.99107 z M 362.37054,346.45982 C 364.44917,345.97571 362.73886,347.06276 362.37054,346.45982 z M 313.24554,360.11607 C 307.70515,374.66352 275.33604,361.62457 301.93962,361.4098 L 307.0881,360.78359 L 313.24554,360.11607 z "
       transform="matrix(0.7285873,0,0,0.6833341,52.422671,5.9852386)"
       style="opacity:0.74444442;fill:#000000;fill-opacity:1;fill-rule:nonzero;stroke:none;stroke-width:5;stroke-linejoin:miter;stroke-miterlimit:4;stroke-dasharray:none;stroke-dashoffset:0;stroke-opacity:1;filter:url(#filter3430)"
       id="path3325" />
    <path
       d="M -241.00446,268.11722 C -262.55654,272.68138 -284.10863,276.61642 -305.66071,279.98552 C -271.15207,290.43559 -240.29613,309.74579 -203.30627,309.89516 C -175.21738,313.00327 -150.05609,300.76182 -134.28008,320.93639 C -109.73425,330.94761 -84.558067,349.94138 -53.504464,337.84509 C -25.2469,325.11571 -1.7157716,327.32982 26.976061,333.32343 C 49.169535,342.46108 73.80866,355.15679 100.35212,348.2387 C 132.91572,343.75497 152.05986,368.65203 179.24554,382.39732 C 200.27229,391.68365 235.92724,392.64856 248.96971,403.36286 C 248.23132,438.89563 296.1054,435.17922 319.99302,428.42013 C 337.20931,423.56049 362.83272,412.59057 356.90179,390.24107 C 388.99185,397.7415 406.53808,363.00098 436.39686,360.21956 C 456.67216,340.62256 483.76664,339.05442 508.93165,328.69723 C 535.71699,307.72037 477.27222,307.09558 463.09883,307.64656 C 436.91744,312.59752 412.03795,303.73501 385.76703,305.96436 C 371.81628,306.59713 355.57412,311.64883 376.43926,300.62067 C 371.94026,274.17318 320.40206,284.68357 297.12487,283.94104 C 266.419,280.87119 235.12724,309.25978 207.51977,293.07921 C 169.53086,275.20741 122.00405,253.26936 82.433036,279.74107 C 73.429366,269.09526 38.383069,256.63762 41.480061,248.92016 C 18.569122,245.60319 -28.821279,230.10487 -49.541297,263.86121 C -74.359893,282.70153 -20.096928,308.3869 -51.129313,306.6911 C -72.300857,298.33829 -96.852894,292.83435 -121.22321,296.56252 C -144.63319,294.69481 -117.87425,300.79292 -117.69196,285.94472 C -151.25701,288.18109 -184.1935,283.51285 -215.55837,271.60107 C -223.81493,269.6113 -232.33339,268.28197 -241.00446,268.11722 z M -121.53571,294.8621 C -111.61583,297.7847 -103.36765,290.22313 -121.53571,294.8621 z M 279.99554,301.70982 C 273.33987,305.41769 256.35014,303.85449 279.99554,301.70982 z M 149.62054,314.20982 C 181.13228,318.14055 142.60856,317.89095 149.62054,314.20982 z M 378.87054,315.61607 C 369.8106,319.95194 351.81963,327.10417 371.38404,318.06084 L 374.85204,316.87711 L 378.87054,315.61607 z M 159.37054,321.99107 C 169.29179,320.50776 191.03815,324.66349 167.64568,324.75461 L 162.15179,324.58482 L 159.37054,321.99107 z M 362.37054,326.45982 C 364.44917,325.97571 362.73886,327.06276 362.37054,326.45982 z M 313.24554,340.11607 C 307.70515,354.66352 275.33604,341.62457 301.93962,341.4098 L 307.0881,340.78359 L 313.24554,340.11607 z "
       transform="matrix(0.7285873,0,0,0.6833341,52.422671,5.9852386)"
       style="opacity:0.74444442;fill:#ffffff;fill-opacity:1;fill-rule:nonzero;stroke:none;stroke-width:5;stroke-linejoin:miter;stroke-miterlimit:4;stroke-dasharray:none;stroke-dashoffset:0;stroke-opacity:1;filter:url(#filter3506)"
       id="path3332" />
    <g
       transform="matrix(0.7285873,0,0,0.7285873,40.279549,-7.221725)"
       style="opacity:0.75;filter:url(#filter3822)"
       id="g3622">
      <path
         d="M -40.534722,245.86791 C -7.8860696,258.91509 91.518793,264.96852 -38.745622,253.44383 C -8.0193435,243.47331 81.237815,197.29827 82.247977,245.29033 C 64.358517,256.27209 94.673602,256.18123 93.082796,256.04436 C 5.6985941,248.52602 24.28344,256.07097 56.817346,244.46519 C 102.76059,229.32363 159.22974,212.80652 164.8002,270.4985 C 170.14012,269.8589 186.17284,269.09992 180.81997,268.5797 C 160.30688,266.58613 139.53033,268.28958 119.04247,266.05152 C 107.63812,264.80572 141.83431,262.68199 153.30581,262.80753 C 242.55147,263.7842 216.81175,260.49088 259.78003,266.96285 C 265.86963,266.74245 284.13691,266.56128 278.04885,266.30164 C 256.37781,265.37744 234.65926,265.93978 212.99033,264.96741 C 207.66737,264.72854 223.62334,264.0905 228.95165,264.09845 C 259.68312,264.14426 290.44276,266.57101 321.1404,265.12862 C 347.76797,263.87747 266.98174,266.51224 241.40456,259.00222 C 208.01253,247.93801 67.440125,229.46339 244.72124,241.26436 C 265.78321,242.66638 305.33809,272.04532 324.5113,283.57521 C 377.41569,323.09759 151.81721,298.22493 252.9671,270.08 C 294.18978,270.69925 335.43044,270.57198 376.63515,271.93775 C 438.21577,273.97891 342.52394,303.93829 287.18175,285.88425 C 279.57094,280.65375 178.44006,263.60345 180.35846,253.9656 C 181.63241,247.56543 191.215,246.72154 196.64327,243.09951 C 250.71007,243.64339 315.75073,244.14337 366.25519,270.76966 C 362.2941,285.97637 365.17298,278.90987 357.85086,292.06233 L 289.93474,287.18027 C 298.00813,283.00521 297.33837,285.28012 287.98617,280.33795 C 257.59715,272.4077 136.00946,247.3587 263.16444,252.96423 C 264.6753,232.60317 348.50512,264.15624 364.89706,276.12419 C 397.20045,287.21459 361.19121,273.49256 317.95403,280.91076 C 314.56707,281.49186 322.64854,285.93056 324.99579,288.44047 C 317.57936,288.7021 310.16293,288.96373 302.7465,289.22535 C 293.69624,288.97319 266.67896,288.12059 275.67112,287.06614 C 298.4648,284.39328 321.53467,285.24414 344.46644,284.33314 C 334.15697,283.46747 323.73506,283.48403 313.53803,281.73614 C 312.13423,281.49551 309.5581,277.68937 310.69698,278.54466 C 357.01159,313.3263 221.80308,313.05959 209.11122,294.96853 C 80.579647,200.22513 264.34197,190.4835 317.54374,253.33857 C 330.6807,299.81186 318.71824,238.36827 243.48655,276.89621 C 224.55125,286.59342 286.02855,276.02093 307.30251,276.02686 C 311.72196,276.02809 298.49139,276.78852 294.07362,276.91031 C 197.76421,279.56543 228.39951,281.25326 182.66458,278.08349 C 147.49773,273.55924 163.06152,276.2413 233.67649,275.2082 C 244.08404,275.05594 213.00937,277.9563 202.60769,278.33733 C 106.92422,281.8424 134.54138,293.37964 96.794391,275.34613 C 60.587099,229.19686 206.21948,240.62867 133.39471,253.93849 C 97.788743,266.7789 6.7602823,302.53962 15.229716,256.41341 C 108.21491,252.31316 84.919291,247.89453 35.552174,270.61988 C -14.483794,273.1927 -62.621596,282.1609 -106.21867,254.7852 L -40.534722,245.86791 z "
         style="opacity:0.41111109;fill:#000000;fill-opacity:1;fill-rule:nonzero;stroke:none;stroke-width:5;stroke-linejoin:miter;stroke-miterlimit:4;stroke-dasharray:none;stroke-dashoffset:0;stroke-opacity:1;filter:url(#filter3774)"
         id="path3512" />
      <path
         d="M -47.94365,236.50617 C -15.01276,250.38546 84.186393,255.83531 -44.49246,248.51218 C -13.233152,239.68707 77.248541,195.47043 79.176728,244.10507 C 61.651278,255.06791 92.158005,254.91473 90.595193,254.73182 C 4.3911144,244.64257 22.594907,253.5076 55.53546,240.44732 C 101.95193,223.09737 159.22974,202.80652 164.8002,260.4985 C 170.14012,259.8589 186.17284,259.09992 180.81997,258.5797 C 160.30688,256.58613 139.52054,258.32543 119.04247,256.05152 C 107.64037,254.78542 141.83431,252.68199 153.30581,252.80753 C 242.55147,253.7842 216.81175,250.49088 259.78003,256.96285 C 265.86963,256.74245 284.13691,256.56128 278.04885,256.30164 C 256.37781,255.37744 234.65926,255.93978 212.99033,254.96741 C 207.66737,254.72854 223.62334,254.0905 228.95165,254.09845 C 259.68312,254.14426 290.44276,256.57101 321.1404,255.12862 C 347.76797,253.87747 266.98174,256.51224 241.40456,249.00222 C 208.01253,237.93801 67.440125,219.46339 244.72124,231.26436 C 265.78321,232.66638 305.33809,262.04532 324.5113,273.57521 C 377.41569,313.09759 151.81721,288.22493 252.9671,260.08 C 294.18978,260.69925 335.43044,260.57198 376.63515,261.93775 C 438.21577,263.97891 342.52394,293.93829 287.18175,275.88425 C 279.57094,270.65375 178.44006,253.60345 180.35846,243.9656 C 181.63241,237.56543 191.215,236.72154 196.64327,233.09951 C 250.71007,233.64339 315.75073,234.14337 366.25519,260.76966 C 362.2941,275.97637 365.17298,268.90987 357.85086,282.06233 L 289.93474,277.18027 C 298.00813,273.00521 297.33837,275.28012 287.98617,270.33795 C 257.59715,262.4077 136.00946,237.3587 263.16444,242.96423 C 264.6753,222.60317 348.50512,254.15624 364.89706,266.12419 C 397.20045,277.21459 361.19121,263.49256 317.95403,270.91076 C 314.56707,271.49186 322.64854,275.93056 324.99579,278.44047 C 317.57936,278.7021 310.16293,278.96373 302.7465,279.22535 C 293.69624,278.97319 266.67896,278.12059 275.67112,277.06614 C 298.4648,274.39328 321.53467,275.24414 344.46644,274.33314 C 334.15697,273.46747 323.73506,273.48403 313.53803,271.73614 C 312.13423,271.49551 309.5581,267.68937 310.69698,268.54466 C 357.01159,303.3263 221.80308,303.05959 209.11122,284.96853 C 80.579647,190.22513 264.34197,180.4835 317.54374,243.33857 C 330.6807,289.81186 318.71824,228.36827 243.48655,266.89621 C 224.55125,276.59342 286.02855,266.02093 307.30251,266.02686 C 311.72196,266.02809 298.49139,266.78852 294.07362,266.91031 C 197.76421,269.56543 228.39951,271.25326 182.66458,268.08349 C 147.49773,263.55924 163.06152,266.2413 233.67649,265.2082 C 244.08404,265.05594 213.00937,267.9563 202.60769,268.33733 C 106.92422,271.8424 134.54138,283.37964 96.794391,265.34613 C 60.374698,219.19686 206.21948,230.62867 133.39471,243.93849 C 97.788743,256.7789 3.2840452,292.53962 10.667988,246.41341 C 101.87692,242.31316 79.496172,237.89453 29.177205,260.61988 C -21.545435,263.1927 -70.240644,272.1609 -113.83772,244.7852 L -47.94365,236.50617 z "
         style="opacity:1;fill:#ffffff;fill-opacity:1;fill-rule:nonzero;stroke:none;stroke-width:5;stroke-linejoin:miter;stroke-miterlimit:4;stroke-dasharray:none;stroke-dashoffset:0;stroke-opacity:1;filter:url(#filter3726)"
         id="path3510" />
    </g>
  </g>
  <g
     transform="translate(305.75953,-19.19196)"
     style="display:inline"
     id="layer2" />
</svg>
